<svg width="120" height="48" viewBox="0 0 120 48" fill="none" xmlns="http://www.w3.org/2000/svg">
<path d="M13.8244 26.3758C13.8244 27.1534 13.9581 27.8356 14.2173 28.4308L14.3232 28.6417C14.5728 29.1313 14.8898 29.5636 15.2738 29.9092L15.4369 30.0527C15.8305 30.3791 16.2725 30.6383 16.7429 30.8111L16.9444 30.8786C17.9811 31.2049 19.0849 31.176 20.0832 30.8017L20.2848 30.7155C20.7456 30.5139 21.1776 30.2351 21.5616 29.8895V29.8989L21.7248 29.7461C22.0896 29.3717 22.3871 28.9295 22.6079 28.4111L22.7044 28.1908C22.906 27.6532 23.0016 27.0478 23.0016 26.3758V15.1633H25.5648V26.5202C25.5647 27.8353 25.2959 28.9971 24.7679 29.9955L24.6526 30.197C24.0478 31.2337 23.203 32.0595 22.1279 32.6355C21.0623 33.2114 19.8045 33.4989 18.4126 33.4989C17.0208 33.4989 15.773 33.2113 14.7076 32.6355H14.6879C13.6223 32.0499 12.7774 31.2336 12.1726 30.2064C11.5678 29.1601 11.2604 27.9216 11.2604 26.5202V15.1633H13.8244V26.3758Z" fill="#001A31"/>
<path fill-rule="evenodd" clip-rule="evenodd" d="M77.1076 19.2911C78.4418 19.2911 79.6225 19.5892 80.6016 20.1939L80.7844 20.3092C81.677 20.8948 82.3872 21.701 82.8863 22.6895L82.9829 22.8911L82.9632 22.9005C83.4336 23.9084 83.6738 25.0799 83.6738 26.3758C83.6738 27.6909 83.4338 28.872 82.9538 29.8895L82.8572 30.0911C82.3197 31.1471 81.5518 31.9829 80.5726 32.5877C79.5934 33.1827 78.4221 33.4802 77.0879 33.4802C75.8401 33.4801 74.7267 33.2112 73.786 32.6833L73.5938 32.568C72.6147 31.9728 71.8467 31.1282 71.3091 30.0723C70.7811 28.9971 70.5122 27.7584 70.5122 26.3664C70.5123 24.9746 70.7902 23.7267 71.3372 22.6708L71.4432 22.4692C71.9808 21.4996 72.72 20.7308 73.6416 20.1836L73.8338 20.0786C74.7746 19.5602 75.8788 19.2911 77.1076 19.2911ZM77.0879 21.6433C76.3104 21.6433 75.6482 21.7972 75.1107 22.1139L74.8894 22.2573C74.3902 22.6125 73.9969 23.0836 73.7185 23.6692L73.6126 23.928C73.3438 24.6192 73.2001 25.4448 73.2001 26.3664C73.2001 27.7872 73.5363 28.9489 74.1891 29.8033L74.3138 29.957C74.9665 30.7152 75.9071 31.0988 77.0972 31.0989C78.4028 31.0989 79.3922 30.6574 80.0354 29.7742L80.1507 29.6111L80.1404 29.5923C80.7067 28.738 80.9953 27.6435 80.9954 26.3477C80.9954 24.9365 80.6591 23.7837 80.0063 22.9389C79.3631 22.0847 78.3741 21.6433 77.0879 21.6433Z" fill="#001A31"/>
<path d="M98.6879 33.0958H96.451V31.397L96.2401 31.6464C95.9713 31.9632 95.6636 32.2419 95.3372 32.4723L95.0213 32.6833C94.1765 33.2017 93.1294 33.4605 91.9294 33.4605C91.0079 33.4604 90.2209 33.3071 89.5969 33.0095C88.973 32.712 88.4549 32.3279 88.0613 31.848C87.7157 31.4256 87.4463 30.965 87.2447 30.4755L87.1585 30.2636C87.005 29.8318 86.88 29.4097 86.8032 28.997L86.7357 28.5836C86.6589 28.027 86.6213 27.5469 86.6213 27.1342V19.6661H89.1844V26.2708C89.1845 26.7987 89.2227 27.3461 89.3091 27.9123L89.3476 28.1139C89.4436 28.5842 89.5965 29.0454 89.8172 29.4677L89.9138 29.6402C90.1538 30.0433 90.4803 30.3794 90.8738 30.6386L91.0463 30.7436C91.4783 30.974 92.0159 31.0895 92.6494 31.0895C93.0622 31.0895 93.4657 31.0322 93.8401 30.917L94.0032 30.8589C94.4256 30.6957 94.7908 30.4367 95.1076 30.0911L95.2229 29.957C95.4916 29.6307 95.7021 29.2176 95.8557 28.7186L95.866 28.7092L95.9326 28.488C96.0478 28.0368 96.1252 27.518 96.1444 26.942V19.6558H98.6879V33.0958Z" fill="#001A31"/>
<path d="M59.9616 14.7695C62.0254 14.7695 63.7533 15.2976 65.0972 16.3342L65.3476 16.5358C66.5571 17.5438 67.4209 18.8788 67.9201 20.5108L65.3569 21.2017C65.021 20.0306 64.4448 19.09 63.6385 18.3892L63.4754 18.2542C62.5826 17.5342 61.392 17.1695 59.9616 17.1695C58.7616 17.1695 57.7244 17.4285 56.8988 17.9373L56.7357 18.0433V18.0142C55.987 18.523 55.392 19.2146 54.9601 20.0786L54.7876 20.4527C54.3652 21.4894 54.1538 22.7088 54.1538 24.0911V24.6002C54.1922 25.7616 54.4029 26.8176 54.7773 27.7295L54.9507 28.1036C55.3827 28.9675 55.9776 29.6592 56.7263 30.168L56.8894 30.2739C57.7246 30.7827 58.7616 31.0417 59.9616 31.0417C61.392 31.0417 62.573 30.677 63.4754 29.957L63.6385 29.822C64.4448 29.1213 65.021 28.1804 65.3569 27.0189L67.9201 27.7108C67.4209 29.3426 66.557 30.6769 65.3476 31.6848L65.0972 31.8864C63.7437 32.9231 62.0255 33.4511 59.9616 33.4511C58.176 33.4511 56.6302 33.0578 55.3726 32.2802C54.1918 31.5506 53.2609 30.5229 52.5985 29.2558L52.4644 28.997C51.8021 27.6051 51.466 25.9538 51.466 24.1108C51.466 22.2676 51.802 20.6252 52.4644 19.2236L52.5985 18.9648C53.2608 17.6882 54.2015 16.6804 55.3726 15.9508L55.6126 15.8064C56.8222 15.1152 58.2816 14.7695 59.9616 14.7695Z" fill="#001A31"/>
<path d="M115.872 19.6558H119.885V21.8927H115.882V28.382C115.891 28.622 115.891 28.8336 115.891 29.0448L115.92 29.3327C115.958 29.611 116.045 29.8609 116.169 30.0817L116.285 30.2636C116.592 30.686 117.044 30.9267 117.629 30.9939C118.195 31.0515 118.963 31.099 119.885 30.9742V33.0958C119.165 33.2398 118.445 33.3077 117.754 33.3077H117.437C116.698 33.2885 116.016 33.125 115.296 32.7986C114.777 32.5682 114.26 32.0785 113.904 31.5123L113.769 31.2817C113.52 30.8017 113.386 30.2352 113.357 29.5248C113.328 28.949 113.328 28.2771 113.328 27.5477V15.902H115.863L115.872 15.8927V19.6558Z" fill="#001A31"/>
<path d="M36.2401 19.3108C37.1616 19.3108 37.9486 19.4548 38.5726 19.7523L38.8032 19.8677C39.331 20.146 39.7629 20.501 40.0988 20.9233L40.2432 21.1061C40.5694 21.5379 40.8193 22.0079 41.0016 22.4973L41.146 22.9295C41.2708 23.3423 41.3668 23.7646 41.4244 24.1773L41.4723 24.5805C41.5203 24.9645 41.5388 25.3205 41.5388 25.6277V33.0958H38.9757V26.5005C38.9757 25.9726 38.9282 25.4352 38.8323 24.8786C38.7651 24.3794 38.6204 23.9184 38.4188 23.4864L38.3326 23.3036C38.083 22.8238 37.728 22.4302 37.2769 22.1327C36.8354 21.8447 36.2306 21.6911 35.5107 21.6911C35.05 21.6911 34.5987 21.768 34.186 21.9311H34.1663C33.7439 22.0847 33.36 22.3346 33.0432 22.6802L32.9663 22.7664C32.6879 23.1024 32.4669 23.5343 32.2941 24.0527L32.2754 24.1295C32.1218 24.6767 32.0354 25.349 32.0354 26.117V33.1155H29.4723V19.7036H31.7185V21.3836L31.9294 21.1342C32.275 20.7311 32.6781 20.3757 33.1388 20.0973L33.3029 20.0017C34.1188 19.541 35.1074 19.3108 36.2401 19.3108Z" fill="#001A31"/>
<path d="M48.0001 33.0958H45.4754V19.7233H48.0001V33.0958Z" fill="#001A31"/>
<path d="M104.842 22.0755L105.063 21.7492C105.14 21.634 105.226 21.5183 105.303 21.4127C105.581 21.0576 105.859 20.7214 106.195 20.4911C106.531 20.2512 106.925 20.0592 107.337 19.9248L107.683 19.8189L107.674 19.8292C108.135 19.7044 108.692 19.6565 109.421 19.6661H109.805V21.902C109.335 21.902 109.248 21.9025 108.701 21.9217C108.173 21.9409 107.491 22.1134 107.049 22.3342L106.868 22.4402C106.436 22.7185 106.09 23.0638 105.84 23.4573L105.792 23.5436C105.581 23.918 105.418 24.3411 105.312 24.7923C105.207 25.2723 105.149 25.7811 105.149 26.3186V33.0958H102.605V19.6558H104.842V22.0755Z" fill="#001A31"/>
<path d="M48.0001 17.2755H45.4754V14.8464H48.0001V17.2755Z" fill="#001A31"/>
<path d="M59.9616 33.4511C62.0254 33.4511 63.7533 32.923 65.0972 31.8864L65.3476 31.6848C66.557 30.6769 67.4209 29.3426 67.9201 27.7108L65.3569 27.0189C65.021 28.19 64.4448 29.1306 63.6385 29.8314L63.4754 29.9664C62.5826 30.6864 61.392 31.0511 59.9616 31.0511C58.7616 31.0511 57.7244 30.7921 56.8988 30.2833L56.7357 30.1773V30.2064C55.987 29.6976 55.392 29.006 54.9601 28.142L54.7876 27.768C54.3652 26.7312 54.1538 25.5119 54.1538 24.1295V23.6205C54.1922 22.459 54.4029 21.403 54.7773 20.4911L54.9507 20.117C55.3827 19.2531 55.9776 18.5614 56.7263 18.0527L56.8894 17.9467C57.7246 17.4379 58.7616 17.1789 59.9616 17.1789C61.392 17.1789 62.573 17.5436 63.4754 18.2636L63.6385 18.3986C64.4448 19.0994 65.021 20.0402 65.3569 21.2017L67.9201 20.5108C67.4209 18.8788 66.5571 17.5438 65.3476 16.5358L65.0972 16.3342C63.7437 15.2975 62.0255 14.7695 59.9616 14.7695C58.176 14.7695 56.6302 15.1629 55.3726 15.9405C54.1918 16.6701 53.2609 17.6977 52.5985 18.9648L52.4644 19.2236C51.8021 20.6155 51.466 22.2677 51.466 24.1108C51.466 25.954 51.802 27.5954 52.4644 28.997L52.5985 29.2558C53.2608 30.5324 54.2015 31.5403 55.3726 32.2698L55.6126 32.4142C56.8222 33.1054 58.2816 33.4511 59.9616 33.4511Z" fill="#001A31"/>
<path d="M41.7037 45.6049H41.5021L6.48835 45.6145C4.29999 45.6145 2.50515 43.9057 2.39958 41.7361V41.5249V6.29292L2.41877 6.09132C2.62993 3.98892 4.37678 2.40492 6.49795 2.40492H41.5021L41.9052 2.41452C44.0072 2.62572 45.5909 4.37292 45.5909 6.48492V8.83692H47.8656V6.16812C47.7025 2.97132 45.1782 0.379317 41.982 0.139317L41.6653 0.120117H41.5021H6.38277H6.31559C2.84109 0.225717 0.124832 3.01932 0.115234 6.49452V41.6689L0.163225 42.3025C0.547148 45.4033 3.18662 47.8033 6.32519 47.8801H6.48835H41.6653C45.063 47.7937 47.7889 45.0673 47.8752 41.6785V41.5153V39.1633H45.6005V41.7169C45.4853 43.8289 43.8153 45.4993 41.7037 45.6049Z" fill="#2F55D9"/>
</svg>
