<svg width="106" height="35" viewBox="0 0 106 35" fill="none" xmlns="http://www.w3.org/2000/svg">
<path d="M40.3061 26.52V7.78148H46.9372C48.5303 7.78148 49.9175 8.13004 51.099 8.82857C52.2987 9.5089 53.2198 10.5462 53.8637 11.9433C54.5259 13.3207 54.8576 15.058 54.8576 17.1507C54.8576 19.2435 54.5259 20.9892 53.8637 22.3862C53.2198 23.7637 52.2973 24.8024 51.099 25.5009C49.9175 26.1812 48.5303 26.5214 46.9372 26.5214H40.3061V26.52ZM43.3396 23.8351H46.9372C47.8681 23.8351 48.6829 23.6377 49.38 23.2443C50.0953 22.851 50.6413 22.2686 51.0178 21.4987C51.4112 20.7288 51.6086 19.7811 51.6086 18.6528V15.6459C51.6086 14.519 51.4112 13.5699 51.0178 12.8C50.6413 12.0301 50.0953 11.4491 49.38 11.0544C48.6815 10.661 47.8681 10.4636 46.9372 10.4636H43.3396V23.8323V23.8351ZM72.8221 26.52H69.6542L68.0163 21.4455H61.01L59.3456 26.52H56.2855L62.6745 7.78148H66.4597L72.8221 26.52ZM67.2646 18.8418L65.4126 13.2843L64.5531 10.5728H64.4187L63.5592 13.2843L61.7072 18.8418H67.2646ZM78.7589 18.9762V26.52H75.7254V7.78148H83.8054C84.9337 7.78148 85.8898 8.00545 86.6779 8.45201C87.4828 8.89996 88.1099 9.5439 88.5565 10.3852C89.0045 11.2083 89.2284 12.2106 89.2284 13.3921C89.2284 14.6982 88.9149 15.8167 88.2891 16.7476C87.6802 17.6603 86.7857 18.2958 85.6042 18.6542L89.6316 26.52H86.2495L82.5175 18.9762H78.7589ZM78.7589 16.399H83.5912C84.0923 16.399 84.5221 16.3094 84.8791 16.1302C85.2556 15.9511 85.5412 15.6921 85.7386 15.3519C85.936 14.9936 86.034 14.5638 86.034 14.0627V12.7734C86.034 12.254 85.936 11.8243 85.7386 11.4841C85.5412 11.1439 85.2556 10.885 84.8791 10.7058C84.5207 10.5266 84.0923 10.437 83.5912 10.437H78.7589V16.3962V16.399ZM105.198 10.465H99.614V26.5186H96.5805V10.465H90.9965V7.78008H105.198V10.465Z" fill="#001A31"/>
<path d="M29.408 4.24729C30.3866 2.79353 29.4081 0.773865 27.7254 0.773865H2.34174C0.659105 0.775283 -0.319398 2.79495 0.659105 4.24729L5.58522 11.5615H24.4791L29.4053 4.24729H29.408Z" fill="#8AD082"/>
<path d="M27.7256 11.5615H24.4807L17.1664 22.4215C16.1207 23.9745 13.9467 23.9745 12.901 22.4215L5.58675 11.5615H2.34187C0.659241 11.5615 -0.319262 13.5812 0.660641 15.0349L12.9024 33.2091C13.9481 34.7621 16.1221 34.7621 17.1678 33.2091L29.4096 15.0349C30.3881 13.5812 29.4096 11.5615 27.727 11.5615H27.7256Z" fill="#016323"/>
<path d="M17.1664 22.4215L24.4807 11.5615H5.58679L12.9011 22.4215C13.9468 23.9745 16.1207 23.9745 17.1664 22.4215Z" fill="#2EA24C"/>
</svg>
