<svg width="38" height="34" viewBox="0 0 38 34" fill="none" xmlns="http://www.w3.org/2000/svg">
<path d="M15.9594 12.1403C17.5216 11.187 20.0554 11.187 21.6176 12.1403L35.9102 20.8586C37.4724 21.8119 37.4724 23.356 35.9102 24.3093L21.6176 33.0276C20.0554 33.9809 17.5216 33.9809 15.9594 33.0276L1.66538 24.3093C0.103137 23.356 0.103137 21.8119 1.66538 20.8586L15.9594 12.1403Z" fill="#2346AF"/>
<path d="M15.9594 0.858778C17.5216 -0.0945275 20.0554 -0.0945275 21.6176 0.858778L35.9116 9.57711C37.4738 10.5304 37.4738 12.0745 35.9116 13.0278L21.6176 21.7461C20.0554 22.6994 17.5216 22.6994 15.9594 21.7461L1.66538 13.0278C0.103137 12.0745 0.103137 10.5304 1.66538 9.57711L15.9594 0.858778Z" fill="#ACBEFF"/>
<path d="M15.9594 12.1403C17.5216 11.187 20.0553 11.187 21.6176 12.1403L29.4918 16.9432L21.6176 21.7461C20.0553 22.6994 17.5216 22.6994 15.9594 21.7461L8.08514 16.9432L15.9594 12.1403Z" fill="#5878E6"/>
</svg>
