<svg width="113" height="34" viewBox="0 0 113 34" fill="none" xmlns="http://www.w3.org/2000/svg">
<path d="M48.0567 26.3124V7.57391H54.6878C56.2809 7.57391 57.6681 7.92248 58.8482 8.62101C60.0479 9.30134 60.969 10.3386 61.6129 11.7357C62.2751 13.1132 62.6054 14.8504 62.6054 16.9432C62.6054 19.036 62.2751 20.7816 61.6129 22.1787C60.969 23.5561 60.0465 24.5948 58.8482 25.2934C57.6667 25.9737 56.2795 26.3139 54.6878 26.3139H48.0567V26.3124ZM51.0902 23.6275H54.6878C55.6187 23.6275 56.4335 23.4301 57.1306 23.0368C57.8459 22.6434 58.3919 22.0611 58.7684 21.2911C59.1618 20.5212 59.3592 19.5735 59.3592 18.4452V15.4383C59.3592 14.3114 59.1618 13.3623 58.7684 12.5924C58.3933 11.8225 57.8473 11.2415 57.1306 10.8468C56.4321 10.4534 55.6187 10.256 54.6878 10.256H51.0902V23.6247V23.6275ZM78.5779 26.3124H66.5783V7.57391H78.5779V10.2588H69.6118V15.4943H77.7463V18.1793H69.6118V23.6289H78.5779V26.3139V26.3124ZM94.7855 26.3124H82.7859V7.57391H94.7855V10.2588H85.8193V15.4943H93.9539V18.1793H85.8193V23.6289H94.7855V26.3139V26.3124ZM102.026 26.3124H98.992V7.57391H107.045C108.191 7.57391 109.166 7.80629 109.971 8.27244C110.794 8.7372 111.421 9.39093 111.85 10.2322C112.278 11.0736 112.494 12.0661 112.494 13.2126C112.494 14.359 112.28 15.3249 111.85 16.1663C111.42 17.0076 110.794 17.6697 109.971 18.1527C109.166 18.6174 108.191 18.8512 107.045 18.8512H102.026V26.3139V26.3124ZM102.026 10.2322V16.1915H106.858C107.359 16.1915 107.789 16.1019 108.147 15.9227C108.522 15.7435 108.809 15.4845 109.007 15.1444C109.204 14.786 109.302 14.3562 109.302 13.8551V12.5658C109.302 12.0465 109.204 11.6167 109.007 11.2765C108.809 10.9364 108.524 10.6774 108.147 10.4982C107.789 10.319 107.36 10.2294 106.858 10.2294H102.026V10.2322Z" fill="#001A31"/>
<path d="M15.9719 12.1403C17.5341 11.187 20.0679 11.187 21.6301 12.1403L35.9227 20.8586C37.485 21.8119 37.485 23.356 35.9227 24.3093L21.6301 33.0276C20.0679 33.9809 17.5341 33.9809 15.9719 33.0276L1.67791 24.3093C0.115664 23.356 0.115664 21.8119 1.67791 20.8586L15.9719 12.1403Z" fill="#2346AF"/>
<path d="M15.9719 0.858778C17.5341 -0.0945275 20.0679 -0.0945275 21.6301 0.858778L35.9241 9.57711C37.4864 10.5304 37.4864 12.0745 35.9241 13.0278L21.6301 21.7461C20.0679 22.6994 17.5341 22.6994 15.9719 21.7461L1.67791 13.0278C0.115664 12.0745 0.115664 10.5304 1.67791 9.57711L15.9719 0.858778Z" fill="#ACBEFF"/>
<path d="M15.9719 12.1403C17.5341 11.187 20.0679 11.187 21.6301 12.1403L29.5043 16.9432L21.6301 21.7461C20.0679 22.6994 17.5341 22.6994 15.9719 21.7461L8.09766 16.9432L15.9719 12.1403Z" fill="#5878E6"/>
</svg>
