<svg width="48" height="48" viewBox="0 0 48 48" fill="none" xmlns="http://www.w3.org/2000/svg">
<path d="M37.0126 34.622L38.7892 37.0895H9.22046L10.997 34.622H37.0126Z" fill="#001A31"/>
<path fill-rule="evenodd" clip-rule="evenodd" d="M37.4158 15.2879V18.6479L35.7939 18.6958C34.7859 18.715 33.9789 19.5412 33.9789 20.5492V32.1554H31.6173V20.4526C31.6172 19.4831 30.83 18.6958 29.8605 18.6958C28.8911 18.696 28.1046 19.4832 28.1045 20.4526V32.1554H25.7523V20.4526C25.7522 19.4832 24.9649 18.6959 23.9955 18.6958C23.0259 18.6958 22.2293 19.4831 22.2292 20.4526V32.1554H19.8676V20.4433C19.8676 19.4833 19.0801 18.6958 18.1201 18.6958C17.1601 18.6958 16.3726 19.4833 16.3726 20.4433V32.1554H14.0017V20.4339C14.0017 19.5219 13.2813 18.763 12.3789 18.6958L10.5845 18.6573V15.2879L23.9955 10.0754L37.4158 15.2879ZM12.542 16.6511H35.2173L24.0001 12.7258L12.542 16.6511Z" fill="#001A31"/>
<path d="M6.33244 47.8801H6.49568H41.6772C45.0762 47.7937 47.8032 45.0673 47.88 41.6785V41.5153V6.16812C47.7264 2.97132 45.2011 0.379317 41.994 0.139317L41.6772 0.120117H41.5139H6.39006H6.32284C2.84694 0.225717 0.119995 3.01932 0.119995 6.49452V41.6689L0.168005 42.3025C0.552082 45.4033 3.20222 47.8033 6.33244 47.8801ZM2.42446 6.08172C2.6357 3.97932 4.38325 2.39532 6.50528 2.39532H41.5235L41.9364 2.41452C44.0392 2.62572 45.6235 4.37292 45.6235 6.48492V41.7169C45.5083 43.8289 43.8376 45.4993 41.7252 45.6049H41.5235L6.49568 45.6145C4.30644 45.6145 2.51088 43.9057 2.40525 41.7361V41.5249L2.42446 6.09132V6.08172Z" fill="#146B85"/>
</svg>
