<svg width="125" height="50" viewBox="0 0 125 50" fill="none" xmlns="http://www.w3.org/2000/svg">
<path d="M62.452 15.2625C64.6317 15.2625 66.4416 15.8144 67.8756 16.9229L68.1407 17.1353C69.4394 18.2176 70.3519 19.6353 70.8778 21.3857L70.8993 21.4598L70.8252 21.4792L68.0579 22.2237L67.9867 22.2432L67.9663 22.1711C67.627 20.9516 67.0395 19.9815 66.2045 19.2576L66.034 19.1163C65.1192 18.3811 63.9272 18.0104 62.452 18.0103C61.2143 18.0103 60.175 18.2717 59.331 18.7908L59.1653 18.898C58.4002 19.4156 57.798 20.1138 57.3597 20.995L57.1824 21.3838C56.7431 22.4519 56.5217 23.6993 56.5217 25.1275L56.5295 25.6546C56.5711 26.8647 56.7844 27.9366 57.1687 28.8712L57.347 29.26C57.7852 30.141 58.3868 30.8394 59.1517 31.3569L59.3193 31.4641C60.1711 31.9834 61.2144 32.2446 62.452 32.2446C63.9272 32.2446 65.1192 31.8739 66.034 31.1387L66.2035 30.9964C67.0391 30.2652 67.627 29.2954 67.9663 28.0839L67.9867 28.0118L68.0579 28.0312L70.8252 28.7757L70.8993 28.7952L70.8778 28.8692C70.3519 30.6197 69.4394 32.0374 68.1407 33.1197L67.8756 33.3321C66.4416 34.4406 64.6317 34.9924 62.452 34.9925C60.5615 34.9925 58.9459 34.5806 57.6092 33.754C56.3574 32.9716 55.379 31.9033 54.6762 30.5511L54.5388 30.2763C53.8371 28.7939 53.4874 27.0769 53.4874 25.1275C53.4874 23.178 53.8371 21.461 54.5388 19.9786L54.6762 19.7039C55.379 18.3522 56.3563 17.2879 57.6082 16.5136L57.8625 16.3626C59.1484 15.6284 60.6795 15.2625 62.452 15.2625ZM80.3147 19.9611C81.7358 19.9611 82.9733 20.2814 84.0223 20.9248L84.2162 21.0486C85.1704 21.6794 85.9156 22.5239 86.4516 23.5791L86.5558 23.7915C87.0582 24.8669 87.308 26.0917 87.3081 27.4632C87.3081 28.8511 87.0542 30.0886 86.5441 31.1728L86.4389 31.3871C85.8673 32.5128 85.0571 33.3978 84.0097 34.0405L84.0087 34.0415C82.9598 34.676 81.7271 34.9915 80.3147 34.9915C78.9824 34.9914 77.8121 34.7102 76.8068 34.1448L76.608 34.0278C75.5606 33.3852 74.7504 32.5 74.1788 31.3745C73.616 30.2401 73.3349 28.9346 73.3349 27.4632C73.335 25.9831 73.6246 24.6787 74.2051 23.5528L74.3161 23.3423C74.8877 22.3088 75.6655 21.4983 76.6479 20.9121L76.8467 20.7972C77.8502 20.2397 79.0069 19.9612 80.3147 19.9611ZM93.0202 27.3599C93.0203 27.9036 93.0635 28.4656 93.1498 29.0446L93.1888 29.2561C93.2884 29.7432 93.447 30.2007 93.6643 30.6281L93.7647 30.8054C94.0091 31.2085 94.3281 31.5402 94.7216 31.8003L94.8989 31.9046C95.3269 32.1304 95.8627 32.2456 96.5087 32.2456C96.9279 32.2456 97.3273 32.1869 97.7062 32.0692L97.867 32.0147C98.29 31.8537 98.6581 31.5995 98.972 31.2517L99.0909 31.1163C99.3568 30.7882 99.5695 30.373 99.7272 29.87L99.7934 29.6478C99.9171 29.1941 99.988 28.6682 100.006 28.0702L100.011 27.7652V20.3538H102.915V34.6008H100.337V33.0407C100.052 33.3739 99.7317 33.6708 99.3715 33.9275L99.0412 34.1467C98.131 34.7034 97.0328 34.9798 95.7515 34.9798C94.7697 34.9798 93.9398 34.8215 93.2658 34.5024C92.5959 34.1851 92.0464 33.7699 91.621 33.2561L91.62 33.2551C91.2579 32.8005 90.9697 32.3111 90.7557 31.7886L90.669 31.5625C90.5047 31.1091 90.3795 30.6622 90.2938 30.2227L90.2207 29.7852C90.1422 29.2089 90.1029 28.7004 90.1028 28.2612V20.3538H93.0202V27.3599ZM120.81 16.5126L120.816 20.3538H125V22.938H120.819L120.828 28.7825L120.83 29.5747C120.833 29.8194 120.836 30.046 120.84 30.2539L120.866 30.5482C120.906 30.8287 120.986 31.0715 121.104 31.277L121.225 31.4602C121.526 31.8646 121.961 32.1002 122.537 32.1667C123.221 32.2359 124.001 32.2707 124.915 32.1413L125 32.1297V34.5881L124.94 34.5998C124.158 34.7529 123.39 34.8288 122.635 34.8278L122.313 34.8229C121.448 34.7965 120.714 34.5861 120.036 34.2782C119.434 34.0044 118.887 33.4594 118.529 32.8829L118.388 32.6344C118.076 32.0376 117.972 31.3611 117.945 30.7557C117.928 30.1458 117.919 29.4562 117.919 28.69V16.4376H120.81V16.5126ZM114.448 20.3538L114.521 20.3557V22.9331H114.446C113.914 22.9331 113.839 22.9328 113.253 22.9565C112.747 22.9769 112.061 23.137 111.592 23.3745L111.406 23.4807C110.971 23.7622 110.626 24.1015 110.371 24.4999L110.372 24.5009C110.124 24.9022 109.944 25.3515 109.833 25.8485C109.721 26.3384 109.664 26.8599 109.664 27.4115V34.6008H106.761V20.3538H109.338V22.5881C109.421 22.4628 109.505 22.3399 109.592 22.2276C109.86 21.8844 110.174 21.4938 110.551 21.2425C110.914 20.9774 111.333 20.7697 111.774 20.6286L112.143 20.5204C112.551 20.4177 113.096 20.3392 113.994 20.3392H113.996L114.448 20.3538ZM80.3147 22.6827C79.5255 22.6828 78.863 22.8406 78.3239 23.1523L78.0998 23.2956C77.5938 23.6453 77.2002 24.1161 76.9208 24.7094L76.8077 24.9716C76.5248 25.6831 76.383 26.5136 76.3829 27.4632C76.3829 28.9311 76.7199 30.0973 77.3856 30.9681L77.5132 31.126C78.1701 31.887 79.1007 32.2708 80.3147 32.2709C81.6451 32.2709 82.6258 31.8255 83.2701 30.9438L83.3899 30.7723C83.9688 29.9001 84.2611 28.7983 84.2611 27.4632C84.261 26.004 83.9241 24.8465 83.2584 23.9845C82.6053 23.1197 81.6276 22.6827 80.3147 22.6827Z" fill="#001A31"/>
<path d="M14.5278 27.4642C14.5278 28.2562 14.6606 28.9507 14.9253 29.5484L15.0296 29.7687C15.2818 30.2722 15.6028 30.6998 15.9913 31.051L16.1609 31.1972C16.5619 31.5279 17.002 31.7833 17.4812 31.9631L17.6907 32.0352C18.1801 32.1926 18.6758 32.2709 19.1777 32.271C19.7601 32.271 20.3258 32.1686 20.8742 31.9631L21.0807 31.8783C21.5556 31.6703 21.9878 31.3896 22.3777 31.0374L22.5404 30.8824C22.9082 30.51 23.2051 30.0615 23.4301 29.5367L23.5236 29.3068C23.7265 28.7635 23.8286 28.1494 23.8286 27.4642V15.6542H26.745V27.6074C26.745 28.9964 26.4641 30.2237 25.8992 31.2858L25.7823 31.4963C25.1401 32.6045 24.2465 33.4669 23.1036 34.0824C21.9687 34.6894 20.6587 34.9925 19.1777 34.9925C17.6969 34.9925 16.3835 34.6902 15.2401 34.0834L15.2391 34.0824C14.1049 33.4669 13.2162 32.6085 12.5741 31.509C11.9313 30.3994 11.6104 29.0975 11.6104 27.6074V15.6678H11.6854L14.4527 15.6542H14.5278V27.4642ZM37.7454 19.9748C38.7276 19.9748 39.558 20.1329 40.2321 20.4522L40.4777 20.576C41.0363 20.8761 41.4987 21.2547 41.8633 21.7122L42.0172 21.9061C42.3652 22.364 42.636 22.8595 42.8289 23.3921L42.98 23.8432C43.1181 24.2922 43.2169 24.7344 43.2762 25.1694L43.3278 25.5894C43.3721 25.9961 43.3941 26.3649 43.3941 26.6944V34.6008H40.4777V27.5947C40.4777 27.0509 40.4295 26.4931 40.3344 25.9226C40.2593 25.4193 40.1187 24.9483 39.9125 24.5117L39.8199 24.3265C39.5736 23.8425 39.2214 23.4517 38.7627 23.1543L38.7617 23.1533C38.3164 22.8593 37.7269 22.709 36.9883 22.709C36.5098 22.709 36.0579 22.7907 35.6319 22.9526H35.6299C35.2072 23.1049 34.834 23.354 34.5113 23.7019L34.5123 23.7029C34.1993 24.0498 33.9461 24.5088 33.7571 25.0837L33.7581 25.0846C33.5783 25.6583 33.4872 26.3601 33.4872 27.1903V34.6008H30.5698V20.3768H33.1607V21.9168C33.5303 21.4825 33.961 21.1111 34.4567 20.8079L34.6292 20.7075C35.5045 20.2183 36.5441 19.9748 37.7454 19.9748ZM50.1187 34.6008H47.2402V20.4158H50.1187V34.6008ZM50.1187 18.1162H47.2402V15.3371H50.1187V18.1162Z" fill="#001A31"/>
<path d="M43.4101 0.00196479L43.415 0.000982395L43.752 0.0186655C47.1378 0.273636 49.828 3.01846 49.9931 6.42388L50.001 6.75593V9.32686H47.379V6.75593C47.3787 4.61132 45.745 2.84753 43.6527 2.63871L43.4494 2.623H43.4445L43.2382 2.61808L6.76478 2.62398C4.618 2.62425 2.85212 4.25513 2.64264 6.34431L2.62693 6.54767V6.5516L2.62201 6.76281V43.245L2.62693 43.4582C2.73794 45.6444 4.54849 47.3836 6.76478 47.3839L43.2401 47.378L43.4396 47.3731H43.4425C45.5635 47.2689 47.2659 45.5718 47.3741 43.4543V43.4494L47.379 43.2441V40.6692H50.001V43.2431L49.999 43.414C49.9079 47.0064 47.0074 49.9029 43.4101 49.9941L43.2362 49.9961L6.76281 50L6.58991 49.999C3.21385 49.9133 0.452211 47.3577 0.0501022 44.0742L0.0186655 43.7549L0.00294719 43.4278L0.000982395 43.4032L0 43.246V6.76183C0.000218208 3.09311 2.92889 0.107151 6.5791 0.00884156L6.6125 0.00785916L6.61447 0.00589437L6.76379 0.00491198L6.76281 0.00392958L43.2362 0L43.4101 0.00196479Z" fill="#146B85"/>
</svg>
