<svg width="30" height="35" viewBox="0 0 30 35" fill="none" xmlns="http://www.w3.org/2000/svg">
<path d="M29.3367 4.24729C30.3152 2.79353 29.3367 0.773865 27.6541 0.773865H2.27038C0.587747 0.775283 -0.390756 2.79495 0.587747 4.24729L5.51386 11.5615H24.4078L29.3339 4.24729H29.3367Z" fill="#8AD082"/>
<path d="M27.6542 11.5615H24.4093L17.095 22.4215C16.0493 23.9745 13.8754 23.9745 12.8297 22.4215L5.51539 11.5615H2.27052C0.587883 11.5615 -0.39062 13.5812 0.589283 15.0349L12.8311 33.2091C13.8768 34.7621 16.0507 34.7621 17.0964 33.2091L29.3382 15.0349C30.3167 13.5812 29.3382 11.5615 27.6556 11.5615H27.6542Z" fill="#016323"/>
<path d="M17.0951 22.4215L24.4094 11.5615H5.51543L12.8297 22.4215C13.8754 23.9745 16.0494 23.9745 17.0951 22.4215Z" fill="#2EA24C"/>
</svg>
